<svg version="1.1" width="468" height="169" viewBox="-1 -1 468 169" xmlns="http://www.w3.org/2000/svg" xmlns:xlink="http://www.w3.org/1999/xlink">
  <defs>
    <radialGradient id="grad_1" cx="0.5064" cy="0.48960000000000004" r="0.66352">
      <stop offset="0" stop-color="#FF00BF" stop-opacity="1"/>
      <stop offset="1" stop-color="#00FF55" stop-opacity="1"/>
    </radialGradient>
  </defs>
  <!-- Exported by Scratch - http://scratch.mit.edu/ -->
  <path id="ID0.34784796135500073" fill="#00FF55" stroke="none" d="M 107.500 249 L 326.500 249 L 326.500 267 L 107.500 267 L 107.500 249 Z " transform="matrix(1.6666666269302368, 0, 0, 0.9027777910232544, -88, -75.35)"/>
  <text id="ID0.2625470981001854" fill="#FF00BF" x="180.5" y="208.25" text-anchor="start" font-family="Helvetica" font-size="22" transform="matrix(0.8087738156318665, -0.0024220850318670273, 0.0024220850318670273, 0.8087738156318665, 194.75, 146.35)">SALMING</text>
  <path id="ID0.9083633576519787" fill="none" stroke="#FFF45C" stroke-width="2" stroke-linecap="round" d="M 337.650 265.650 L 337.650 249.900 " transform="matrix(1, 0, 0, 1, -10, -100)"/>
  <path id="ID0.36469299206510186" fill="#E5E5E5" stroke="none" d="M 359.500 246 L 473.500 246 L 473.500 269 L 359.500 269 L 359.500 246 Z " transform="matrix(0.9956139922142029, 0, 0, 0.8608695864677429, -4.5, -64.45)"/>
  <path id="ID0.9636644804850221" fill="none" stroke="#C6C3C3" stroke-width="2" stroke-linecap="round" d="M 369 247.750 L 380.500 266.500 " transform="matrix(1, 0, 0, 1, -14, -100)"/>
  <path id="ID0.9636644804850221" fill="none" stroke="#C6C3C3" stroke-width="2" stroke-linecap="round" d="M 369 247.750 L 380.500 266.500 " transform="matrix(1, 0, 0, 1, 7.75, -100)"/>
  <path id="ID0.9636644804850221" fill="none" stroke="#C6C3C3" stroke-width="2" stroke-linecap="round" d="M 369 247.750 L 380.500 266.500 " transform="matrix(1, 0, 0, 1, 27, -100)"/>
  <path id="ID0.9636644804850221" fill="none" stroke="#C6C3C3" stroke-width="2" stroke-linecap="round" d="M 369 247.750 L 380.500 266.500 " transform="matrix(1, 0, 0, 1, 46.25, -100)"/>
  <path id="ID0.9636644804850221" fill="none" stroke="#C6C3C3" stroke-width="2" stroke-linecap="round" d="M 369 247.750 L 380.500 266.500 " transform="matrix(1, 0, 0, 1, 64.75, -100)"/>
  <path id="ID0.9636644804850221" fill="none" stroke="#C6C3C3" stroke-width="2" stroke-linecap="round" d="M 369 247.750 L 380.500 266.500 " transform="matrix(1, 0, 0, 1, 83.5, -100)"/>
  <g id="ID0.5340001387521625" transform="matrix(0.00036900676786899567, 1.306352138519287, -1.306352138519287, 0.00036900676786899567, 93.55, -0.4)">
    <path id="ID0.8151614950038493" fill="none" stroke="#FF00BF" stroke-width="2" stroke-linecap="round" d="M 193.850 170.950 L 202.650 144 L 211.900 133.750 L 222.400 129.250 L 235.900 133.750 L 242.400 140 L 243.100 153.250 L 241.850 159.500 L 235.900 176.750 L 233.850 191.500 L 233.050 205 L 236.050 227.500 L 246.550 238.500 L 248.650 242.400 L 258.550 242.300 L 258.500 254.550 L 246.500 255.500 L 238.750 259 L 229.400 264.250 L 227 266.250 L 224.400 267.850 L 222.300 268.950 L 219.800 268.800 L 215.300 267.200 L 209.800 262.950 L 204.550 257.700 L 200 251 L 193.300 230.450 L 190.350 197.200 L 193.850 170.950 Z " transform="matrix(-0.0010095807956531644, -0.9999995231628418, 0.9999995231628418, -0.0010095807956531644, -127.25, 260.3)"/>
    <path id="ID0.0525600416585803" fill="#E454D1" stroke="none" stroke-linecap="round" d="M 211.850 142.750 L 221.300 149.800 L 228.850 219.750 L 224.750 218.900 L 218.400 215.450 L 211.850 142.750 Z " transform="matrix(0.8421207070350647, -0.539289116859436, 0.361481636762619, 0.5644675493240356, -155.65, 61.65)"/>
    <path id="ID0.6188116450794041" fill="#E454D1" stroke="none" stroke-linecap="round" d="M 202.100 218.800 L 212.950 219.300 L 221.900 218.600 L 233 217.250 L 244.150 215.400 L 251.700 212.900 L 252.600 221.900 L 216.300 223.750 L 190.250 218.250 L 202.100 218.800 Z " transform="matrix(0.998290479183197, -0.05844791978597641, 0.05844791978597641, 0.998290479183197, -158.55, -141.1)"/>
    <path id="ID0.4899563225917518" fill="#FF00BF" stroke="none" d="M 294.300 170.750 L 304.750 172.250 L 307.600 218.200 L 299.050 218.800 L 294.300 170.750 Z " transform="matrix(0.23535147309303284, -0.3632581830024719, 0.7670673131942749, 0.49697554111480713, -99.05, 45.25)"/>
    <path id="ID0.6409466806799173" fill="#FF00BF" stroke="none" stroke-linecap="round" d="M 258.700 152.900 L 270.250 153.100 L 270.250 173.150 L 269.250 192.900 L 267.750 210.450 L 255.150 214.850 L 256.500 208.400 L 257.750 191.150 L 258.250 180.250 L 258.600 166.850 L 258.700 152.900 Z " transform="matrix(1.0228841304779053, 0, 0, 1.0228841304779053, -149.15, -155.4)"/>
    <path id="ID0.9238250944763422" fill="#E454D1" stroke="#FF00BF" stroke-width="2" stroke-linecap="round" d="M 239.200 161.650 L 248.850 156.500 L 249.050 165.650 L 242.650 166.650 L 235.650 165.600 L 239.200 161.650 Z " transform="matrix(0.7534681558609009, -0.04964713007211685, 0.04964713007211685, 0.7534681558609009, -80.5, -93.8)"/>
    <path id="ID0.25086833303794265" fill="none" stroke="#FF00BF" stroke-width="4" stroke-linecap="round" d="M 260.600 172.350 L 246.200 179.150 L 238.750 183.250 L 222 187.350 L 209.150 187.850 L 185.150 186.250 L 171.500 183 L 162.150 178.250 L 154.250 173 " transform="matrix(1, 0, 0, 1, -143, -152)"/>
    <path id="ID0.015912965405732393" fill="none" stroke="#FF00BF" stroke-width="4" stroke-linecap="round" d="M 258.200 188.500 L 228.500 197 L 210.150 198.350 L 190.250 197.500 L 173.650 194.850 L 161.650 190.650 L 154.150 185.500 L 149 181.250 " transform="matrix(1, 0, 0, 1, -143, -152)"/>
    <path id="ID0.6179633098654449" fill="none" stroke="#FF00BF" stroke-width="4" stroke-linecap="round" d="M 258.500 202.150 L 242.350 206.650 L 228 209.500 L 224.350 210.150 L 219.350 210.750 L 207.650 211.350 L 193.850 210.150 L 181.700 208.500 L 178.600 207.250 L 162.200 202.150 L 147 192.500 " transform="matrix(1, 0, 0, 1, -143, -152)"/>
    <path id="ID0.9516457500867546" fill="none" stroke="#FF00BF" stroke-width="4" stroke-linecap="round" d="M 247.650 175.150 L 245.500 186.350 L 239 201.750 L 231.100 219.150 " transform="matrix(1, 0, 0, 1, -143, -152)"/>
    <path id="ID0.1306681470014155" fill="none" stroke="#FF00BF" stroke-width="4" stroke-linecap="round" d="M 227.500 179.700 L 223.150 191.800 L 217.800 204.300 L 207.650 219.450 " transform="matrix(1.0312849283218384, 0, 0, 1.0312849283218384, -149.9, -158.25)"/>
    <path id="ID0.6182310446165502" fill="none" stroke="#FF00BF" stroke-width="4" stroke-linecap="round" d="M 185.900 216.750 L 192.500 204.250 L 198.250 192 L 202.400 179 " transform="matrix(1, 0, 0, 1, -143, -152)"/>
    <path id="ID0.14332452276721597" fill="none" stroke="#FF00BF" stroke-width="4" stroke-linecap="round" d="M 180.400 174 L 178.900 180.250 L 174.900 189 L 169.900 198.150 L 162.250 208.850 " transform="matrix(1, 0, 0, 1, -143, -152)"/>
    <text id="ID0.18482401175424457" fill="#000000" x="162.75" y="172.25" text-anchor="start" font-family="Helvetica" font-size="22" transform="matrix(0.01642761193215847, -0.29221346974372864, 0.29221346974372864, 0.01642761193215847, 114.8, 57.75)">SALMING</text>
    <g id="ID0.08320429129526019">
      <text id="ID0.3080944549292326" fill="#666666" x="196.5" y="148.5" text-anchor="start" font-family="Helvetica" font-size="22" transform="matrix(0.369457483291626, 0, 0, 0.369457483291626, 117.1, 2.55)">V</text>
      <path id="ID0.5357934939675033" fill="none" stroke="#666666" stroke-width="1" d="M 232.625 146.500 C 234.453 146.500 236.109 147.304 237.308 148.603 C 238.508 149.902 239.250 151.695 239.250 153.675 C 239.250 155.655 238.508 157.448 237.308 158.747 C 236.109 160.046 234.453 160.850 232.625 160.850 C 230.797 160.850 229.141 160.046 227.942 158.747 C 226.742 157.448 226 155.655 226 153.675 C 226 151.695 226.742 149.902 227.942 148.603 C 229.141 147.304 230.797 146.500 232.625 146.500 Z " transform="matrix(0.6676739454269409, 0, 0, 0.6676739454269409, -34.75, -95.3)"/>
      <path id="ID0.4246260249055922" fill="#666666" stroke="none" stroke-linecap="round" d="M 280.700 162.800 L 280.550 161.500 L 281.100 161.600 L 280.950 164.100 L 280.700 162.800 Z " transform="matrix(1.6201092004776, -1.85321843624115, 0.5876058340072632, 0.5136931538581848, -426.5, 448.3)"/>
    </g>
  </g>
  <path id="ID0.8364175599999726" fill="url(#grad_1)" stroke="#00FF55" stroke-width="2" d="M 115 318 L 291 318 L 291 345 L 115 345 L 115 318 Z " transform="matrix(0.34286418557167053, 0, 0, 0.4121110439300537, 64.05, 20.75)"/>
  <text id="ID0.5257002143189311" fill="#00FF55" x="119.5" y="252.75" text-anchor="start" font-family="Helvetica" font-size="22" transform="matrix(0.4217366874217987, 0, 0, 0.40069034695625305, 111.85, 151.35)">KickZone</text>
</svg>