<svg version="1.1" width="482" height="275" viewBox="0 -1 482 275" xmlns="http://www.w3.org/2000/svg" xmlns:xlink="http://www.w3.org/1999/xlink">
  <defs>
    <radialGradient id="grad_1" cx="0.4943" cy="0.4568" r="0.70616">
      <stop offset="0" stop-color="#FFF45C" stop-opacity="1"/>
      <stop offset="1" stop-color="#FFF45C" stop-opacity="0"/>
    </radialGradient>
    <radialGradient id="grad_2" cx="0.0098" cy="0.44310000000000005" r="1.28726">
      <stop offset="0" stop-color="#3B5DF3" stop-opacity="0"/>
      <stop offset="1" stop-color="#3B5DF3" stop-opacity="1"/>
    </radialGradient>
  </defs>
  <!-- Exported by Scratch - http://scratch.mit.edu/ -->
  <g id="ID0.6106706582941115" transform="matrix(1, 0, 0, 1, -3, -82)">
    <g id="ID0.5340001387521625" transform="matrix(1, 0, 0, 1, 3, 82)">
      <path id="ID0.8151614950038493" fill="none" stroke="#FFF45C" stroke-width="2" stroke-linecap="round" d="M 193.850 170.950 L 202.650 144 L 211.900 133.750 L 222.400 129.250 L 235.900 133.750 L 242.400 140 L 243.100 153.250 L 241.850 159.500 L 234.600 177.250 L 233.850 191.500 L 233.050 205 L 236.050 227.500 L 246.550 238.500 L 248.650 242.400 L 258.950 242.650 L 258.500 254.550 L 246.500 255.500 L 238.750 259 L 229.400 264.250 L 227 266.250 L 224.400 267.850 L 222.300 268.950 L 219.800 268.800 L 215.300 267.200 L 209.800 262.950 L 204.550 257.700 L 200 251 L 193.300 230.450 L 190.350 197.200 L 193.850 170.950 Z " transform="matrix(1.448358178138733, 0.0028712742496281862, -0.0028712742496281862, 1.448358178138733, -271.9, -185.9)"/>
      <path id="ID0.0525600416585803" fill="#E7DD55" stroke="none" stroke-linecap="round" d="M 211.850 142.750 L 221.300 149.800 L 228.850 219.750 L 224.750 218.900 L 218.400 215.450 L 211.850 142.750 Z " transform="matrix(0.7774325013160706, 1.2220263481140137, -0.8191155791282654, 0.5211074352264404, 15.9, -226.2)"/>
      <path id="ID0.6188116450794041" fill="#E7DD55" stroke="none" stroke-linecap="round" d="M 202.100 218.800 L 212.950 219.300 L 221.900 218.600 L 233 217.250 L 244.150 215.400 L 251.700 212.900 L 252.600 221.900 L 216.300 223.750 L 190.250 218.250 L 202.100 218.800 Z " transform="matrix(0.08032720535993576, 1.4461318254470825, -1.4461318254470825, 0.08032720535993576, 309.6, -229.5)"/>
      <path id="ID0.4899563225917518" fill="#FFF45C" stroke="none" d="M 294.300 170.750 L 304.750 172.250 L 307.600 218.200 L 299.050 218.800 L 294.300 170.750 Z " transform="matrix(0.5251067280769348, 0.34244653582572937, -0.7231208682060242, 1.108831763267517, 39.4, -144.15)"/>
      <path id="ID0.6409466806799173" fill="#FFF45C" stroke="none" stroke-linecap="round" d="M 258.400 152.450 L 270.250 153.100 L 270.250 173.150 L 269.250 192.900 L 267.750 210.450 L 255.150 214.850 L 256.500 208.400 L 257.750 191.150 L 258.250 180.250 L 258.600 166.850 L 258.400 152.450 Z " transform="matrix(-0.0044326758943498135, 1.4814988374710083, -1.4814988374710083, -0.0044326758943498135, 330.25, -215.85)"/>
      <path id="ID0.9238250944763422" fill="#E7DD55" stroke="#FFF45C" stroke-width="2" stroke-linecap="round" d="M 239.200 161.650 L 248.850 156.500 L 249.050 165.650 L 242.650 166.650 L 235.650 165.600 L 239.200 161.650 Z " transform="matrix(0.06864148378372192, 1.0915040969848633, -1.0915040969848633, 0.06864148378372192, 240.75, -116.65)"/>
      <path id="ID0.25086833303794265" fill="none" stroke="#FFF45C" stroke-width="4" stroke-linecap="round" d="M 260.600 172.350 L 246.200 179.150 L 238.750 183.250 L 222 187.350 L 209.150 187.850 L 185.150 186.250 L 171.500 183 L 162.150 178.250 L 154.250 173 " transform="matrix(-0.004333507269620895, 1.4483544826507568, -1.4483544826507568, -0.004333507269620895, 325.3, -206.95)"/>
      <path id="ID0.015912965405732393" fill="none" stroke="#FFF45C" stroke-width="4" stroke-linecap="round" d="M 258.200 188.500 L 228.500 197 L 210.150 198.350 L 190.250 197.500 L 173.650 194.850 L 161.650 190.650 L 154.150 185.500 L 149 181.250 " transform="matrix(-0.004333507269620895, 1.4483544826507568, -1.4483544826507568, -0.004333507269620895, 325.3, -206.95)"/>
      <path id="ID0.6179633098654449" fill="none" stroke="#FFF45C" stroke-width="4" stroke-linecap="round" d="M 258.500 202.150 L 242.350 206.650 L 228 209.500 L 224.350 210.150 L 219.350 210.750 L 207.650 211.350 L 193.850 210.150 L 181.700 208.500 L 178.600 207.250 L 162.200 202.150 L 147 192.500 " transform="matrix(-0.004333507269620895, 1.4483544826507568, -1.4483544826507568, -0.004333507269620895, 325.3, -206.95)"/>
      <path id="ID0.9516457500867546" fill="none" stroke="#FFF45C" stroke-width="4" stroke-linecap="round" d="M 247.650 175.150 L 245.500 186.350 L 239 201.750 L 231.100 219.150 " transform="matrix(-0.004333507269620895, 1.4483544826507568, -1.4483544826507568, -0.004333507269620895, 325.3, -206.95)"/>
      <path id="ID0.1306681470014155" fill="none" stroke="#FFF45C" stroke-width="4" stroke-linecap="round" d="M 227.500 179.700 L 223.150 191.800 L 217.800 204.300 L 207.650 219.450 " transform="matrix(-0.004469080828130245, 1.493666172027588, -1.493666172027588, -0.004469080828130245, 334.4, -216.9)"/>
      <path id="ID0.6182310446165502" fill="none" stroke="#FFF45C" stroke-width="4" stroke-linecap="round" d="M 185.900 216.750 L 192.500 204.250 L 198.250 192 L 202.400 179 " transform="matrix(-0.004333507269620895, 1.4483544826507568, -1.4483544826507568, -0.004333507269620895, 325.3, -206.95)"/>
      <path id="ID0.14332452276721597" fill="none" stroke="#FFF45C" stroke-width="4" stroke-linecap="round" d="M 180.400 174 L 178.900 180.250 L 174.900 189 L 169.900 198.150 L 162.250 208.850 " transform="matrix(-0.004333507269620895, 1.4483544826507568, -1.4483544826507568, -0.004333507269620895, 325.3, -206.95)"/>
      <text id="ID0.18482401175424457" fill="#000000" x="162.75" y="172.25" text-anchor="start" font-family="Helvetica" font-size="22" transform="matrix(0.4231575131416321, 0.02505931444466114, -0.02505931444466114, 0.4231575131416321, 20.4, 165.5)">SALMING</text>
      <g id="ID0.08320429129526019">
        <text id="ID0.3080944549292326" fill="#666666" x="196.5" y="148.5" text-anchor="start" font-family="Helvetica" font-size="22" transform="matrix(-0.0016010466497391462, 0.5351054072380066, -0.5351054072380066, -0.0016010466497391462, 100.35, 169.05)">V</text>
        <path id="ID0.5357934939675033" fill="none" stroke="#666666" stroke-width="1" d="M 232.625 146.500 C 234.453 146.500 236.109 147.304 237.308 148.603 C 238.508 149.902 239.250 151.695 239.250 153.675 C 239.250 155.655 238.508 157.448 237.308 158.747 C 236.109 160.046 234.453 160.850 232.625 160.850 C 230.797 160.850 229.141 160.046 227.942 158.747 C 226.742 157.448 226 155.655 226 153.675 C 226 151.695 226.742 149.902 227.942 148.603 C 229.141 147.304 230.797 146.500 232.625 146.500 Z " transform="matrix(-0.0028933698777109385, 0.9670285582542419, -0.9670285582542419, -0.0028933698777109385, 242.7, -50.4)"/>
        <path id="ID0.4246260249055922" fill="#666666" stroke="none" stroke-linecap="round" d="M 280.700 162.800 L 280.550 161.500 L 281.100 161.600 L 280.950 164.100 L 280.700 162.800 Z " transform="matrix(2.677096366882324, 2.3545234203338623, -0.7465561628341675, 0.8488354682922363, -542.85, -620.15)"/>
      </g>
    </g>
    <path id="ID0.34784796135500073" fill="#3B54FF" stroke="none" d="M 107.500 249 L 326.500 249 L 326.500 267 L 107.500 267 L 107.500 249 Z " transform="matrix(1.6666666269302368, 0, 0, 0.9027777910232544, -73, 24.65)"/>
    <g id="ID0.7555083646439016" transform="matrix(1, 0, 0, 1, 3, 82)">
      <path id="ID0.8364175599999726" fill="url(#grad_1)" stroke="url(#grad_2)" stroke-width="2" d="M 115 318 L 291 318 L 291 345 L 115 345 L 115 318 Z " transform="matrix(0.34286418557167053, 0, 0, 0.4121110439300537, 69.05, 39.75)"/>
      <text id="ID0.5257002143189311" fill="#3B5DF3" x="119.5" y="252.75" text-anchor="start" font-family="Helvetica" font-size="22" transform="matrix(0.4217366874217987, 0, 0, 0.40069034695625305, 116.1, 170.1)">KickZone</text>
    </g>
    <text id="ID0.2625470981001854" fill="#FFFFFF" x="180.5" y="208.25" text-anchor="start" font-family="Helvetica" font-size="22" transform="matrix(0.9845720529556274, -0.17497935891151428, 0.17497935891151428, 0.9845720529556274, 193.4, 252.1)">SALMING</text>
    <path id="ID0.9083633576519787" fill="none" stroke="#FFF45C" stroke-width="2" stroke-linecap="round" d="M 337.650 265.650 L 337.650 249.900 " transform="matrix(1, 0, 0, 1, 5, 0)"/>
    <path id="ID0.36469299206510186" fill="#E5E5E5" stroke="none" d="M 359.500 246 L 473.500 246 L 473.500 269 L 359.500 269 L 359.500 246 Z " transform="matrix(0.9956139922142029, 0, 0, 0.8608695864677429, 10.6, 35.55)"/>
    <path id="ID0.9636644804850221" fill="none" stroke="#C6C3C3" stroke-width="2" stroke-linecap="round" d="M 369 247.750 L 380.500 266.500 " transform="matrix(1, 0, 0, 1, 1, 0)"/>
    <path id="ID0.9636644804850221" fill="none" stroke="#C6C3C3" stroke-width="2" stroke-linecap="round" d="M 369 247.750 L 380.500 266.500 " transform="matrix(1, 0, 0, 1, 22.75, 0)"/>
    <path id="ID0.9636644804850221" fill="none" stroke="#C6C3C3" stroke-width="2" stroke-linecap="round" d="M 369 247.750 L 380.500 266.500 " transform="matrix(1, 0, 0, 1, 42, 0)"/>
    <path id="ID0.9636644804850221" fill="none" stroke="#C6C3C3" stroke-width="2" stroke-linecap="round" d="M 369 247.750 L 380.500 266.500 " transform="matrix(1, 0, 0, 1, 61.25, 0)"/>
    <path id="ID0.9636644804850221" fill="none" stroke="#C6C3C3" stroke-width="2" stroke-linecap="round" d="M 369 247.750 L 380.500 266.500 " transform="matrix(1, 0, 0, 1, 79.75, 0)"/>
    <path id="ID0.9636644804850221" fill="none" stroke="#C6C3C3" stroke-width="2" stroke-linecap="round" d="M 369 247.750 L 380.500 266.500 " transform="matrix(1, 0, 0, 1, 98.5, 0)"/>
  </g>
</svg>