<svg version="1.1" width="403" height="351" viewBox="15 -1 403 351" xmlns="http://www.w3.org/2000/svg" xmlns:xlink="http://www.w3.org/1999/xlink">
  <defs>
    <radialGradient id="grad_1" cx="0.4943" cy="0.4568" r="0.70616">
      <stop offset="0" stop-color="#FFF45C" stop-opacity="1"/>
      <stop offset="1" stop-color="#FFF45C" stop-opacity="0"/>
    </radialGradient>
    <radialGradient id="grad_2" cx="0.0098" cy="0.44310000000000005" r="1.28726">
      <stop offset="0" stop-color="#3B5DF3" stop-opacity="0"/>
      <stop offset="1" stop-color="#3B5DF3" stop-opacity="1"/>
    </radialGradient>
  </defs>
  <!-- Exported by Scratch - http://scratch.mit.edu/ -->
  <g id="ID0.5340001387521625" transform="matrix(1, 0, 0, 1, 0, 2)">
    <path id="ID0.8151614950038493" fill="none" stroke="#FFF45C" stroke-width="2" stroke-linecap="round" d="M 193.850 170.950 L 202.650 144 L 211.900 133.750 L 222.400 129.250 L 235.900 133.750 L 242.400 140 L 243.100 153.250 L 241.850 159.500 L 234.600 177.250 L 233.850 191.500 L 233.050 205 L 236.050 227.500 L 246.550 238.500 L 248.650 242.400 L 258.950 242.650 L 258.500 254.550 L 246.500 255.500 L 238.750 259 L 229.400 264.250 L 227 266.250 L 224.400 267.850 L 222.300 268.950 L 219.800 268.800 L 215.300 267.200 L 209.800 262.950 L 204.550 257.700 L 200 251 L 193.300 230.450 L 190.350 197.200 L 193.850 170.950 Z " transform="matrix(0.6017045378684998, -0.6198611855506897, 0.6198611855506897, 0.6017045378684998, -192.95, 320.55)"/>
    <path id="ID0.0525600416585803" fill="#E7DD55" stroke="none" stroke-linecap="round" d="M 211.850 142.750 L 221.300 149.800 L 228.850 219.750 L 224.750 218.900 L 218.400 215.450 L 211.850 142.750 Z " transform="matrix(0.8463160991668701, 0.17327798902988434, -0.11614701896905899, 0.5672796368598938, -90.95, 180.45)"/>
    <path id="ID0.6188116450794041" fill="#E7DD55" stroke="none" stroke-linecap="round" d="M 202.100 218.800 L 212.950 219.300 L 221.900 218.600 L 233 217.250 L 244.150 215.400 L 251.700 212.900 L 252.600 221.900 L 216.300 223.750 L 190.250 218.250 L 202.100 218.800 Z " transform="matrix(0.6533997058868408, 0.5651062726974487, -0.5651062726974487, 0.6533997058868408, 29.35, 53.15)"/>
    <path id="ID0.4899563225917518" fill="#FFF45C" stroke="none" d="M 294.300 170.750 L 304.750 172.250 L 307.600 218.200 L 299.050 218.800 L 294.300 170.750 Z " transform="matrix(0.36454349756240845, -0.08318959921598434, 0.1756657212972641, 0.7697814702987671, -46, 204.35)"/>
    <path id="ID0.6409466806799173" fill="#FFF45C" stroke="none" stroke-linecap="round" d="M 258.400 152.450 L 270.250 153.100 L 270.250 173.150 L 269.250 192.900 L 267.750 210.450 L 255.150 214.850 L 256.500 208.400 L 257.750 191.150 L 258.250 180.250 L 258.600 166.850 L 258.400 152.450 Z " transform="matrix(0.6334244608879089, 0.6161138415336609, -0.6161138415336609, 0.6334244608879089, 43.8, 50)"/>
    <path id="ID0.9238250944763422" fill="#E7DD55" stroke="#FFF45C" stroke-width="2" stroke-linecap="round" d="M 239.200 161.650 L 248.850 156.500 L 249.050 165.650 L 242.650 166.650 L 235.650 165.600 L 239.200 161.650 Z " transform="matrix(0.4964916408061981, 0.4230923056602478, -0.4230923056602478, 0.4964916408061981, 49.2, 129.5)"/>
    <path id="ID0.25086833303794265" fill="none" stroke="#FFF45C" stroke-width="4" stroke-linecap="round" d="M 260.600 172.350 L 246.200 179.150 L 238.750 183.250 L 222 187.350 L 209.150 187.850 L 185.150 186.250 L 171.500 183 L 162.150 178.250 L 154.250 173 " transform="matrix(0.6192533373832703, 0.6023300290107727, -0.6023300290107727, 0.6192533373832703, 45.55, 55.8)"/>
    <path id="ID0.015912965405732393" fill="none" stroke="#FFF45C" stroke-width="4" stroke-linecap="round" d="M 258.200 188.500 L 228.500 197 L 210.150 198.350 L 190.250 197.500 L 173.650 194.850 L 161.650 190.650 L 154.150 185.500 L 149 181.250 " transform="matrix(0.6192533373832703, 0.6023300290107727, -0.6023300290107727, 0.6192533373832703, 45.55, 55.8)"/>
    <path id="ID0.6179633098654449" fill="none" stroke="#FFF45C" stroke-width="4" stroke-linecap="round" d="M 258.500 202.150 L 242.350 206.650 L 228 209.500 L 224.350 210.150 L 219.350 210.750 L 207.650 211.350 L 193.850 210.150 L 181.700 208.500 L 178.600 207.250 L 162.200 202.150 L 147 192.500 " transform="matrix(0.6192533373832703, 0.6023300290107727, -0.6023300290107727, 0.6192533373832703, 45.55, 55.8)"/>
    <path id="ID0.9516457500867546" fill="none" stroke="#FFF45C" stroke-width="4" stroke-linecap="round" d="M 247.650 175.150 L 245.500 186.350 L 239 201.750 L 231.100 219.150 " transform="matrix(0.6192533373832703, 0.6023300290107727, -0.6023300290107727, 0.6192533373832703, 45.55, 55.8)"/>
    <path id="ID0.1306681470014155" fill="none" stroke="#FFF45C" stroke-width="4" stroke-linecap="round" d="M 227.500 179.700 L 223.150 191.800 L 217.800 204.300 L 207.650 219.450 " transform="matrix(0.6386266350746155, 0.6211738586425781, -0.6211738586425781, 0.6386266350746155, 45.05, 47.75)"/>
    <path id="ID0.6182310446165502" fill="none" stroke="#FFF45C" stroke-width="4" stroke-linecap="round" d="M 185.900 216.750 L 192.500 204.250 L 198.250 192 L 202.400 179 " transform="matrix(0.6192533373832703, 0.6023300290107727, -0.6023300290107727, 0.6192533373832703, 45.55, 55.8)"/>
    <path id="ID0.14332452276721597" fill="none" stroke="#FFF45C" stroke-width="4" stroke-linecap="round" d="M 180.400 174 L 178.900 180.250 L 174.900 189 L 169.900 198.150 L 162.250 208.850 " transform="matrix(0.6192533373832703, 0.6023300290107727, -0.6023300290107727, 0.6192533373832703, 45.55, 55.8)"/>
    <text id="ID0.18482401175424457" fill="#000000" x="162.75" y="172.25" text-anchor="start" font-family="Helvetica" font-size="22" transform="matrix(0.18618179857730865, -0.17105934023857117, 0.17105934023857117, 0.18618179857730865, 78.85, 340.9)">SALMING</text>
    <g id="ID0.08320429129526019">
      <text id="ID0.3080944549292326" fill="#666666" x="196.5" y="148.5" text-anchor="start" font-family="Helvetica" font-size="22" transform="matrix(0.22878779470920563, 0.22253532707691193, -0.22253532707691193, 0.22878779470920563, 113.5, 308.1)">V</text>
      <path id="ID0.5357934939675033" fill="none" stroke="#666666" stroke-width="1" d="M 232.625 146.500 C 234.453 146.500 236.109 147.304 237.308 148.603 C 238.508 149.902 239.250 151.695 239.250 153.675 C 239.250 155.655 238.508 157.448 237.308 158.747 C 236.109 160.046 234.453 160.850 232.625 160.850 C 230.797 160.850 229.141 160.046 227.942 158.747 C 226.742 157.448 226 155.655 226 153.675 C 226 151.695 226.742 149.902 227.942 148.603 C 229.141 147.304 230.797 146.500 232.625 146.500 Z " transform="matrix(0.41345933079719543, 0.40216004848480225, -0.40216004848480225, 0.41345933079719543, 78.45, 156.05)"/>
      <path id="ID0.4246260249055922" fill="#666666" stroke="none" stroke-linecap="round" d="M 280.700 162.800 L 280.550 161.500 L 281.100 161.600 L 280.950 164.100 L 280.700 162.800 Z " transform="matrix(2.119507074356079, -0.17177127301692963, 0.05446409434080124, 0.6720388531684875, -491.5, 256.7)"/>
    </g>
  </g>
  <path id="ID0.34784796135500073" fill="#3B54FF" stroke="none" d="M 107.500 249 L 326.500 249 L 326.500 267 L 107.500 267 L 107.500 249 Z " transform="matrix(1.341252088546753, -1.3872166872024536, 0.38710835576057434, 0.37428173422813416, -126.15, 363.75)"/>
  <g id="ID0.7555083646439016" transform="matrix(1, 0, 0, 1, 0, 2)">
    <path id="ID0.8364175599999726" fill="url(#grad_1)" stroke="url(#grad_2)" stroke-width="2" d="M 115 318 L 291 318 L 291 345 L 115 345 L 115 318 Z " transform="matrix(0.1421477198600769, -0.14701911807060242, 0.17671196162700653, 0.17085669934749603, 45.1, 267.9)"/>
    <text id="ID0.5257002143189311" fill="#3B5DF3" x="119.5" y="252.75" text-anchor="start" font-family="Helvetica" font-size="22" transform="matrix(0.17484737932682037, -0.180839404463768, 0.17181479930877686, 0.16612181067466736, 120.5, 301.75)">KickZone</text>
  </g>
  <text id="ID0.2625470981001854" fill="#FFFFFF" x="180.5" y="208.25" text-anchor="start" font-family="Helvetica" font-size="22" transform="matrix(0.3331621289253235, -0.4947260022163391, 0.4947260022163391, 0.3331621289253235, 143.45, 278.35)">SALMING</text>
  <path id="ID0.9083633576519787" fill="none" stroke="#FFF45C" stroke-width="2" stroke-linecap="round" d="M 337.650 265.650 L 337.650 249.900 " transform="matrix(0.414588987827301, -0.4287969470024109, 0.4287969470024109, 0.414588987827301, -46.35, 260.15)"/>
  <path id="ID0.36469299206510186" fill="#E5E5E5" stroke="none" d="M 359.500 246 L 471.550 243.300 L 472.800 243.200 L 473.800 242.400 L 473.900 269.800 L 472.900 269.400 L 471.750 268.300 L 359.500 269 L 359.500 246 Z " transform="matrix(1.1937971115112305, -1.2347084283828735, 0.369138240814209, 0.35690703988075256, -247.35, 499.5)"/>
  <path id="ID0.9636644804850221" fill="none" stroke="#C6C3C3" stroke-width="2" stroke-linecap="round" d="M 369 247.750 L 380.500 266.500 " transform="matrix(0.414588987827301, -0.4287969470024109, 0.4287969470024109, 0.414588987827301, 38.75, 173.85)"/>
  <path id="ID0.9636644804850221" fill="none" stroke="#C6C3C3" stroke-width="2" stroke-linecap="round" d="M 369 247.750 L 380.500 266.500 " transform="matrix(0.414588987827301, -0.4287969470024109, 0.4287969470024109, 0.414588987827301, 46.75, 165.85)"/>
  <path id="ID0.9636644804850221" fill="none" stroke="#C6C3C3" stroke-width="2" stroke-linecap="round" d="M 369 247.750 L 380.500 266.500 " transform="matrix(0.414588987827301, -0.4287969470024109, 0.4287969470024109, 0.414588987827301, 54.85, 156.8)"/>
  <path id="ID0.9636644804850221" fill="none" stroke="#C6C3C3" stroke-width="2" stroke-linecap="round" d="M 369 247.750 L 380.500 266.500 " transform="matrix(0.414588987827301, -0.4287969470024109, 0.4287969470024109, 0.414588987827301, 64.4, 147.8)"/>
  <path id="ID0.9636644804850221" fill="none" stroke="#C6C3C3" stroke-width="2" stroke-linecap="round" d="M 369 247.750 L 380.500 266.500 " transform="matrix(0.414588987827301, -0.4287969470024109, 0.4287969470024109, 0.414588987827301, 72.85, 138.6)"/>
  <path id="ID0.9636644804850221" fill="none" stroke="#C6C3C3" stroke-width="2" stroke-linecap="round" d="M 369 247.750 L 380.500 266.500 " transform="matrix(0.414588987827301, -0.4287969470024109, 0.4287969470024109, 0.414588987827301, 81.05, 129.6)"/>
  <path id="ID0.9636644804850221" fill="none" stroke="#C6C3C3" stroke-width="2" stroke-linecap="round" d="M 369 247.750 L 380.500 266.500 " transform="matrix(0.414588987827301, -0.4287969470024109, 0.4287969470024109, 0.414588987827301, 89.25, 120.75)"/>
  <path id="ID0.9636644804850221" fill="none" stroke="#C6C3C3" stroke-width="2" stroke-linecap="round" d="M 369 247.750 L 380.500 266.500 " transform="matrix(0.414588987827301, -0.4287969470024109, 0.4287969470024109, 0.414588987827301, 97.8, 111.8)"/>
  <path id="ID0.9636644804850221" fill="none" stroke="#C6C3C3" stroke-width="2" stroke-linecap="round" d="M 369 247.750 L 380.500 266.500 " transform="matrix(0.414588987827301, -0.4287969470024109, 0.4287969470024109, 0.414588987827301, 106.45, 102.85)"/>
  <path id="ID0.9636644804850221" fill="none" stroke="#C6C3C3" stroke-width="2" stroke-linecap="round" d="M 369 247.750 L 380.500 266.500 " transform="matrix(0.414588987827301, -0.4287969470024109, 0.4287969470024109, 0.414588987827301, 114.35, 94.3)"/>
  <path id="ID0.9636644804850221" fill="none" stroke="#C6C3C3" stroke-width="2" stroke-linecap="round" d="M 369 247.750 L 380.500 266.500 " transform="matrix(0.414588987827301, -0.4287969470024109, 0.4287969470024109, 0.414588987827301, 122.45, 86.55)"/>
  <path id="ID0.9636644804850221" fill="none" stroke="#C6C3C3" stroke-width="2" stroke-linecap="round" d="M 369 247.750 L 380.500 266.500 " transform="matrix(0.414588987827301, -0.4287969470024109, 0.4287969470024109, 0.414588987827301, 130.1, 78.55)"/>
  <path id="ID0.9636644804850221" fill="none" stroke="#C6C3C3" stroke-width="2" stroke-linecap="round" d="M 369 247.750 L 380.500 266.500 " transform="matrix(0.414588987827301, -0.4287969470024109, 0.4287969470024109, 0.414588987827301, 137.4, 70.85)"/>
  <path id="ID0.9636644804850221" fill="none" stroke="#C6C3C3" stroke-width="2" stroke-linecap="round" d="M 369 247.750 L 380.500 266.500 " transform="matrix(0.414588987827301, -0.4287969470024109, 0.4287969470024109, 0.414588987827301, 143.85, 63.35)"/>
  <path id="ID0.9636644804850221" fill="none" stroke="#C6C3C3" stroke-width="2" stroke-linecap="round" d="M 369 247.750 L 380.500 266.500 " transform="matrix(0.414588987827301, -0.4287969470024109, 0.4287969470024109, 0.414588987827301, 30.6, 182.1)"/>
  <path id="ID0.9636644804850221" fill="none" stroke="#C6C3C3" stroke-width="2" stroke-linecap="round" d="M 369 247.750 L 380.500 266.500 " transform="matrix(0.414588987827301, -0.4287969470024109, 0.4287969470024109, 0.414588987827301, 22.85, 190.3)"/>
  <path id="ID0.9636644804850221" fill="none" stroke="#C6C3C3" stroke-width="2" stroke-linecap="round" d="M 369 247.750 L 380.500 266.500 " transform="matrix(0.414588987827301, -0.4287969470024109, 0.4287969470024109, 0.414588987827301, 14.15, 199.1)"/>
</svg>