<?xml version="1.0" encoding="UTF-8"?>
<svg width="557px" height="557px" viewBox="0 0 557 557" version="1.1" xmlns="http://www.w3.org/2000/svg" xmlns:xlink="http://www.w3.org/1999/xlink">
    <!-- Generator: Sketch 41.2 (35397) - http://www.bohemiancoding.com/sketch -->
    <title>vectorstick</title>
    <desc>Created with Sketch.</desc>
    <defs>
        <radialGradient cx="49.43%" cy="45.68%" fx="49.43%" fy="45.68%" r="70.616%" id="radialGradient-1">
            <stop stop-color="#FFF45C" offset="0%"></stop>
            <stop stop-color="#FFF45C" stop-opacity="0" offset="100%"></stop>
        </radialGradient>
    </defs>
    <g id="Page-1" stroke="none" stroke-width="1" fill="none" fill-rule="evenodd">
        <g id="Group-3" transform="translate(278.882812, 278.207031) rotate(45.000000) translate(-278.882812, -278.207031) translate(69.882812, 94.207031)">
            <polygon id="ID0.8151614950038493" stroke="#FFF45C" stroke-width="1.72774563" transform="translate(65.637286, 303.097558) rotate(-45.851549) translate(-65.637286, -303.097558) " points="39.0300038 278.779538 46.6320845 255.498166 54.6229081 246.64347 63.6935726 242.756042 75.3558556 246.64347 80.9710289 252.042675 81.5757399 263.48899 80.4958989 268.888195 74.232821 284.221937 73.5849164 296.532125 72.8938181 308.194408 75.4854366 327.631546 84.5561011 337.134147 86.370234 340.503251 95.268124 340.719219 94.8793813 350.999306 84.5129075 351.819985 77.8178932 354.84354 69.7406823 359.378872 67.6673876 361.106618 65.4213183 362.488814 63.6071854 363.439074 61.4475033 363.309493 57.5600757 361.927297 52.8087752 358.255837 48.2734429 353.720505 44.3428216 347.932557 38.5548737 330.179971 36.0064489 301.4562"></polygon>
            <polygon id="ID0.0525600416585803" fill="#E7DD55" transform="translate(74.484105, 323.451239) rotate(11.571039) translate(-74.484105, -323.451239) " points="67.1411865 301.1579 75.3047844 305.240187 81.827024 345.744578 78.2851455 345.252387 72.7995533 343.254673"></polygon>
            <polygon id="ID0.6188116450794041" fill="#E7DD55" transform="translate(50.652203, 322.932147) rotate(40.855568) translate(-50.652203, -322.932147) " points="33.9578604 323.342487 43.3308806 323.774423 51.0625425 323.169712 60.651531 322.003484 70.2837131 320.405319 76.805953 318.245637 77.5834385 326.020493 46.2248546 327.618657 23.7209673 322.867357"></polygon>
            <polygon id="ID0.4899563225917518" fill="#FFF45C" transform="translate(97.924656, 331.248276) rotate(-12.854891) translate(-97.924656, -331.248276) " points="95.4381213 312.278839 99.3455337 313.463195 100.411192 349.743971 97.2142178 350.217713"></polygon>
            <polygon id="ID0.6409466806799173" fill="#FFF45C" transform="translate(97.051299, 330.181508) rotate(44.206297) translate(-97.051299, -330.181508) " points="93.2516392 302.611885 103.722794 303.186252 103.722794 320.90327 102.839153 338.355195 101.51369 353.863108 90.3798034 357.751132 91.5727198 352.051643 92.677272 336.808822 93.1190929 327.177126 93.4283675 315.336326"></polygon>
            <polygon id="ID0.9238250944763422" stroke="#FFF45C" stroke-width="1.30462416" fill="#E7DD55" transform="translate(101.163610, 314.257057) rotate(40.436441) translate(-101.163610, -314.257057) " points="99.1088268 314.305981 105.403638 310.946573 105.534101 316.915229 101.359303 317.567541 96.7931189 316.882613"></polygon>
            <polyline id="ID0.25086833303794265" stroke="#FFF45C" stroke-width="3.45549107" transform="translate(65.518985, 294.265832) rotate(44.206299) translate(-65.518985, -294.265832) " points="111.45542 287.570818 99.0156519 293.445153 92.5797997 296.987032 78.1099309 300.52891 67.0091658 300.960846 46.2762194 299.57865 34.4843561 296.771063 26.4071457 292.667668 19.5825508 288.132336"></polyline>
            <polyline id="ID0.015912965405732393" stroke="#FFF45C" stroke-width="3.45549107" transform="translate(57.307740, 297.968677) rotate(44.206299) translate(-57.307740, -297.968677) " points="104.475193 296.845643 78.8181719 304.188561 62.9661066 305.35479 45.7750385 304.620498 31.4347506 302.331235 21.0682774 298.702969 14.5892316 294.254024 10.1402868 290.582565"></polyline>
            <polyline id="ID0.6179633098654449" stroke="#FFF45C" stroke-width="3.45549107" transform="translate(49.478123, 304.965144) rotate(44.206299) translate(-49.478123, -304.965144) " points="97.6390299 305.159515 83.6874847 309.046942 71.2909104 311.50898 68.1377748 312.070497 63.818411 312.588821 53.7110996 313.107144 41.7896554 312.070497 31.2936013 310.645107 28.6155957 309.565266 14.4480823 305.159515 1.31721622 296.823143"></polyline>
            <polyline id="ID0.9516457500867546" stroke="#FFF45C" stroke-width="3.45549107" transform="translate(75.034402, 324.068546) rotate(44.206299) translate(-75.034402, -324.068546) " points="82.1829496 305.063345 80.3256231 314.73872 74.7104501 328.042361 67.8858553 343.073747"></polyline>
            <polyline id="ID0.1306681470014155" stroke="#FFF45C" stroke-width="3.56359581" transform="translate(60.028417, 312.355813) rotate(44.206298) translate(-60.028417, -312.355813) " points="68.8705894 294.649196 64.9951789 305.429074 60.2288696 316.565311 51.1862452 330.06243"></polyline>
            <polyline id="ID0.6182310446165502" stroke="#FFF45C" stroke-width="3.45549107" transform="translate(46.591981, 297.277129) rotate(44.206299) translate(-46.591981, -297.277129) " points="39.4650306 313.582728 45.1665909 302.784318 50.1338593 292.201877 53.7189313 280.971531"></polyline>
            <polyline id="ID0.14332452276721597" stroke="#FFF45C" stroke-width="3.45549107" transform="translate(36.342552, 279.534762) rotate(44.206299) translate(-36.342552, -279.534762) " points="44.1821976 264.481779 42.8863884 269.880984 39.4308974 277.439871 35.1115335 285.344307 28.5029069 294.587745"></polyline>
            <text id="SALMING" fill="#000000" transform="translate(95.856543, 332.608895) rotate(-42.576046) translate(-95.856543, -332.608895) " font-family="Helvetica" font-size="6" font-weight="normal">
                <tspan x="79.3565428" y="335.108895">SALMING</tspan>
            </text>
            <text id="V" fill="#666666" transform="translate(117.159321, 318.478945) rotate(44.206296) translate(-117.159321, -318.478945) " font-family="Helvetica" font-size="5" font-weight="normal">
                <tspan x="110.514736" y="320.478945">V</tspan>
            </text>
            <g id="Group-2" transform="translate(109.000000, 4.000000)">
                <path d="M4.56400274,307.959248 C5.37653634,307.959248 6.1126171,308.320647 6.64556447,308.904548 C7.17895633,309.48845 7.50877029,310.294404 7.50877029,311.184416 C7.50877029,312.074427 7.17895633,312.880382 6.64556447,313.464283 C6.1126171,314.048185 5.37653634,314.409583 4.56400274,314.409583 C3.75146914,314.409583 3.01538838,314.048185 2.48244101,313.464283 C1.94904915,312.880382 1.61923519,312.074427 1.61923519,311.184416 C1.61923519,310.294404 1.94904915,309.48845 2.48244101,308.904548 C3.01538838,308.320647 3.75146914,307.959248 4.56400274,307.959248 Z" id="ID0.5357934939675033" stroke="#666666" stroke-width="0.576785335" transform="translate(4.564003, 311.184416) rotate(44.206297) translate(-4.564003, -311.184416) "></path>
                <polygon id="ID0.4246260249055922" fill="#666666" transform="translate(5.413487, 315.098622) rotate(-4.633297) translate(-5.413487, -315.098622) " points="4.04030789 314.042364 4.68254866 315.136392 5.85941646 316.524568 6.47332714 313.952962 6.78666548 313.672669"></polygon>
                <polygon id="ID0.34784796135500073" fill="#3B54FF" transform="translate(155.775659, 155.288666) rotate(-45.965130) translate(-155.775659, -155.288666) " points="-55.5147222 150.442522 367.06604 150.442522 367.06604 160.134811 -55.5147222 160.134811"></polygon>
            </g>
            <g id="Group" transform="translate(119.000000, 280.000000)">
                <g id="ID0.7555083646439016" transform="translate(0.000000, 0.557429)">
                    <polygon id="ID0.8364175599999726" stroke="#3B54FF" stroke-width="0.5" fill="url(#radialGradient-1)" transform="translate(13.978292, 14.917659) rotate(-45.965132) translate(-13.978292, -14.917659) " points="-2.25065983 11.6409769 30.2072443 11.6409769 30.2072443 18.1943419 -2.25065983 18.1943419"></polygon>
                    <text id="KickZone" fill="#3B5DF3" transform="translate(14.407806, 14.028316) rotate(-45.970000) translate(-14.407806, -14.028316) " font-family="Helvetica" font-size="5" font-weight="normal">
                        <tspan x="3.97541215" y="16.028316">KickZone</tspan>
                    </text>
                </g>
            </g>
            <text id="SALMING" fill="#FFFFFF" transform="translate(180.552402, 244.527758) rotate(-56.042589) translate(-180.552402, -244.527758) " font-family="Helvetica" font-size="12" font-weight="normal">
                <tspan x="145.318832" y="248.527758">SALMING</tspan>
            </text>
            <path d="M204,226.720021 L204,217.325957" id="ID0.9083633576519787" stroke="#FFF45C" stroke-width="1.19289706" transform="translate(204.596449, 222.022989) rotate(-45.965132) translate(-204.596449, -222.022989) "></path>
            <polygon id="ID0.36469299206510186" fill="#E5E5E5" transform="translate(344.641560, 76.400891) rotate(-45.965130) translate(-344.641560, -76.400891) " points="246.403054 71.2149005 438.844043 69.8285467 440.990863 69.7772002 442.70832 69.3664287 442.880065 83.4353529 441.162609 83.2299671 439.187534 82.6651563 246.403054 83.0245814"></polygon>
            <path d="M300.942059,114.167833 L307.801217,125.351243" id="ID0.9636644804850221" stroke="#C6C3C3" stroke-width="1.19289706" transform="translate(304.371638, 119.759538) rotate(-45.965132) translate(-304.371638, -119.759538) "></path>
            <path d="M308.942059,106.167833 L315.801217,117.351243" id="ID0.9636644804850221" stroke="#C6C3C3" stroke-width="1.19289706" transform="translate(312.371638, 111.759538) rotate(-45.965132) translate(-312.371638, -111.759538) "></path>
            <path d="M317.042059,97.1178326 L323.901217,108.301243" id="ID0.9636644804850221" stroke="#C6C3C3" stroke-width="1.19289706" transform="translate(320.471638, 102.709538) rotate(-45.965132) translate(-320.471638, -102.709538) "></path>
            <path d="M326.592059,88.1178326 L333.451217,99.3012426" id="ID0.9636644804850221" stroke="#C6C3C3" stroke-width="1.19289706" transform="translate(330.021638, 93.709538) rotate(-45.965132) translate(-330.021638, -93.709538) "></path>
            <path d="M335.042059,78.9178326 L341.901217,90.1012426" id="ID0.9636644804850221" stroke="#C6C3C3" stroke-width="1.19289706" transform="translate(338.471638, 84.509538) rotate(-45.965132) translate(-338.471638, -84.509538) "></path>
            <path d="M343.242059,69.9178326 L350.101217,81.1012426" id="ID0.9636644804850221" stroke="#C6C3C3" stroke-width="1.19289706" transform="translate(346.671638, 75.509538) rotate(-45.965132) translate(-346.671638, -75.509538) "></path>
            <path d="M351.442059,61.0678326 L358.301217,72.2512426" id="ID0.9636644804850221" stroke="#C6C3C3" stroke-width="1.19289706" transform="translate(354.871638, 66.659538) rotate(-45.965132) translate(-354.871638, -66.659538) "></path>
            <path d="M359.992059,52.1178326 L366.851217,63.3012426" id="ID0.9636644804850221" stroke="#C6C3C3" stroke-width="1.19289706" transform="translate(363.421638, 57.709538) rotate(-45.965132) translate(-363.421638, -57.709538) "></path>
            <path d="M368.642059,43.1678326 L375.501217,54.3512426" id="ID0.9636644804850221" stroke="#C6C3C3" stroke-width="1.19289706" transform="translate(372.071638, 48.759538) rotate(-45.965132) translate(-372.071638, -48.759538) "></path>
            <path d="M376.542059,34.6178326 L383.401217,45.8012426" id="ID0.9636644804850221" stroke="#C6C3C3" stroke-width="1.19289706" transform="translate(379.971638, 40.209538) rotate(-45.965132) translate(-379.971638, -40.209538) "></path>
            <path d="M384.642059,26.8678326 L391.501217,38.0512426" id="ID0.9636644804850221" stroke="#C6C3C3" stroke-width="1.19289706" transform="translate(388.071638, 32.459538) rotate(-45.965132) translate(-388.071638, -32.459538) "></path>
            <path d="M392.292059,18.8678326 L399.151217,30.0512426" id="ID0.9636644804850221" stroke="#C6C3C3" stroke-width="1.19289706" transform="translate(395.721638, 24.459538) rotate(-45.965132) translate(-395.721638, -24.459538) "></path>
            <path d="M399.592059,11.1678326 L406.451217,22.3512426" id="ID0.9636644804850221" stroke="#C6C3C3" stroke-width="1.19289706" transform="translate(403.021638, 16.759538) rotate(-45.965132) translate(-403.021638, -16.759538) "></path>
            <path d="M406.042059,3.66783262 L412.901217,14.8512426" id="ID0.9636644804850221" stroke="#C6C3C3" stroke-width="1.19289706" transform="translate(409.471638, 9.259538) rotate(-45.965132) translate(-409.471638, -9.259538) "></path>
            <path d="M292.792059,122.417833 L299.651217,133.601243" id="ID0.9636644804850221" stroke="#C6C3C3" stroke-width="1.19289706" transform="translate(296.221638, 128.009538) rotate(-45.965132) translate(-296.221638, -128.009538) "></path>
            <path d="M285.042059,130.617833 L291.901217,141.801243" id="ID0.9636644804850221" stroke="#C6C3C3" stroke-width="1.19289706" transform="translate(288.471638, 136.209538) rotate(-45.965132) translate(-288.471638, -136.209538) "></path>
            <path d="M276.342059,139.417833 L283.201217,150.601243" id="ID0.9636644804850221" stroke="#C6C3C3" stroke-width="1.19289706" transform="translate(279.771638, 145.009538) rotate(-45.965132) translate(-279.771638, -145.009538) "></path>
        </g>
    </g>
</svg>